<svg width="24" height="24" viewBox="0 0 24 24" fill="none" xmlns="http://www.w3.org/2000/svg">
<path d="M17 5.625C17 8.18437 13.9542 12.7453 12.6167 14.5828C12.2958 15.075 11.7042 15.075 11.3833 14.5828C10.0458 12.7453 7 8.18437 7 5.625C7 2.51859 9.2375 0 12 0C14.7625 0 17 2.51859 17 5.625ZM12 7.125C12.9208 7.125 13.6667 6.28594 13.6667 5.25C13.6667 4.21453 12.9208 3.375 12 3.375C11.0792 3.375 10.3333 4.21453 10.3333 5.25C10.3333 6.28594 11.0792 7.125 12 7.125ZM17.7333 8.42812C17.7542 8.37187 17.775 8.31562 17.7958 8.25469L22.6292 6.07969C23.2875 5.78437 24 6.32812 24 7.125V19.8187C24 20.2781 23.75 20.6906 23.3708 20.8641L17.3333 23.5781V9.39375C17.4792 9.07031 17.6125 8.75156 17.7333 8.42812ZM6.26667 8.42812C6.3875 8.75156 6.52083 9.07031 6.66667 9.39375V21.1781L1.37125 23.5641C0.714583 23.8172 0 23.3156 0 22.5187V9.825C0 9.36562 0.248958 8.91094 0.62875 8.77969L5.73333 6.48281C5.83333 7.14844 6.0375 7.80937 6.26667 8.42812ZM13.6583 15.5203C14.2375 14.7469 15.1458 13.4203 16 11.9531V23.6391L8 21.0656V11.9531C8.85417 13.4203 9.7625 14.7469 10.3417 15.5203C11.1958 16.7625 12.8042 16.7625 13.6583 15.5203Z" fill="#80B199"/>
</svg>
